{
    "asset" : {
        "generator" : "Khronos glTF Blender I/O v1.5.17",
        "version" : "2.0"
    },
    "scene" : 0,
    "scenes" : [
        {
            "name" : "Scene",
            "nodes" : [
                54
            ]
        }
    ],
    "nodes" : [
        {
            "mesh" : 0,
            "name" : "Part 1"
        },
        {
            "children" : [
                0
            ],
            "name" : "occurrence of Part 1",
            "translation" : [
                0.11143627017736435,
                9.905011177062988,
                4.80078649520874
            ]
        },
        {
            "mesh" : 1,
            "name" : "Part 1.001"
        },
        {
            "children" : [
                2
            ],
            "name" : "occurrence of Part 1.001",
            "translation" : [
                6.361436367034912,
                9.805010795593262,
                6.76470422744751
            ]
        },
        {
            "mesh" : 2,
            "name" : "Part 1.002"
        },
        {
            "children" : [
                4
            ],
            "name" : "occurrence of Part 1.002",
            "translation" : [
                0.11143627017736435,
                5.80501127243042,
                4.900786399841309
            ]
        },
        {
            "mesh" : 3,
            "name" : "Part 1.003"
        },
        {
            "children" : [
                6
            ],
            "name" : "occurrence of Part 1.003",
            "translation" : [
                9.71143627166748,
                9.805010795593262,
                1.3007866144180298
            ]
        },
        {
            "mesh" : 4,
            "name" : "Part 1.004"
        },
        {
            "children" : [
                8
            ],
            "name" : "occurrence of Part 1.004",
            "translation" : [
                0.21143627166748047,
                -2.394989013671875,
                4.80078649520874
            ]
        },
        {
            "mesh" : 3,
            "name" : "Part 1.005"
        },
        {
            "children" : [
                10
            ],
            "name" : "occurrence of Part 1.005",
            "translation" : [
                9.71143627166748,
                -2.394989013671875,
                1.3007866144180298
            ]
        },
        {
            "mesh" : 1,
            "name" : "Part 1.006"
        },
        {
            "children" : [
                12
            ],
            "name" : "occurrence of Part 1.006",
            "translation" : [
                6.361436367034912,
                5.705010890960693,
                6.76470422744751
            ]
        },
        {
            "mesh" : 0,
            "name" : "Part 1.007"
        },
        {
            "children" : [
                14
            ],
            "name" : "occurrence of Part 1.007",
            "rotation" : [
                0,
                -0.13052618503570557,
                0,
                0.9914448857307434
            ],
            "translation" : [
                4.889021873474121,
                9.905011177062988,
                6.271115779876709
            ]
        },
        {
            "mesh" : 3,
            "name" : "Part 1.008"
        },
        {
            "children" : [
                16
            ],
            "name" : "occurrence of Part 1.008",
            "translation" : [
                0.11143627017736435,
                1.6050111055374146,
                1.3007866144180298
            ]
        },
        {
            "mesh" : 3,
            "name" : "Part 1.009"
        },
        {
            "children" : [
                18
            ],
            "name" : "occurrence of Part 1.009",
            "translation" : [
                6.608436107635498,
                9.805010795593262,
                1.3007866144180298
            ]
        },
        {
            "mesh" : 4,
            "name" : "Part 1.010"
        },
        {
            "children" : [
                20
            ],
            "name" : "occurrence of Part 1.010",
            "translation" : [
                0.21143627166748047,
                5.705010890960693,
                4.80078649520874
            ]
        },
        {
            "mesh" : 4,
            "name" : "Part 1.011"
        },
        {
            "children" : [
                22
            ],
            "name" : "occurrence of Part 1.011",
            "translation" : [
                0.21143627166748047,
                9.805010795593262,
                4.80078649520874
            ]
        },
        {
            "mesh" : 0,
            "name" : "Part 1.012"
        },
        {
            "children" : [
                24
            ],
            "name" : "occurrence of Part 1.012",
            "translation" : [
                9.71143627166748,
                9.905011177062988,
                4.80078649520874
            ]
        },
        {
            "mesh" : 3,
            "name" : "Part 1.013"
        },
        {
            "children" : [
                26
            ],
            "name" : "occurrence of Part 1.013",
            "translation" : [
                0.11143627017736435,
                -2.394989013671875,
                1.3007866144180298
            ]
        },
        {
            "mesh" : 1,
            "name" : "Part 1.014"
        },
        {
            "children" : [
                28
            ],
            "name" : "occurrence of Part 1.014",
            "translation" : [
                6.361436367034912,
                1.7050111293792725,
                6.76470422744751
            ]
        },
        {
            "mesh" : 3,
            "name" : "Part 1.015"
        },
        {
            "children" : [
                30
            ],
            "name" : "occurrence of Part 1.015",
            "translation" : [
                0.11143627017736435,
                9.805010795593262,
                1.3007866144180298
            ]
        },
        {
            "mesh" : 3,
            "name" : "Part 1.016"
        },
        {
            "children" : [
                32
            ],
            "name" : "occurrence of Part 1.016",
            "translation" : [
                0.11143627017736435,
                5.705010890960693,
                1.3007866144180298
            ]
        },
        {
            "mesh" : 3,
            "name" : "Part 1.017"
        },
        {
            "children" : [
                34
            ],
            "name" : "occurrence of Part 1.017",
            "translation" : [
                9.71143627166748,
                1.6050111055374146,
                1.3007866144180298
            ]
        },
        {
            "mesh" : 2,
            "name" : "Part 1.018"
        },
        {
            "children" : [
                36
            ],
            "name" : "occurrence of Part 1.018",
            "translation" : [
                0.11143627017736435,
                -2.2949888706207275,
                4.900786399841309
            ]
        },
        {
            "mesh" : 3,
            "name" : "Part 1.019"
        },
        {
            "children" : [
                38
            ],
            "name" : "occurrence of Part 1.019",
            "translation" : [
                9.71143627166748,
                5.705010890960693,
                1.3007866144180298
            ]
        },
        {
            "mesh" : 3,
            "name" : "Part 1.020"
        },
        {
            "children" : [
                40
            ],
            "name" : "occurrence of Part 1.020",
            "translation" : [
                6.608436107635498,
                -2.394989013671875,
                1.3007866144180298
            ]
        },
        {
            "mesh" : 5,
            "name" : "Part 1.021"
        },
        {
            "children" : [
                42
            ],
            "name" : "occurrence of Part 1.021",
            "translation" : [
                -0.03856372833251953,
                -2.5449888706207275,
                1.2707865238189697
            ]
        },
        {
            "mesh" : 2,
            "name" : "Part 1.022"
        },
        {
            "children" : [
                44
            ],
            "name" : "occurrence of Part 1.022",
            "translation" : [
                0.11143627017736435,
                9.905011177062988,
                4.900786399841309
            ]
        },
        {
            "mesh" : 3,
            "name" : "Part 1.023"
        },
        {
            "children" : [
                46
            ],
            "name" : "occurrence of Part 1.023",
            "translation" : [
                3.2144362926483154,
                -2.394989013671875,
                1.3007866144180298
            ]
        },
        {
            "mesh" : 3,
            "name" : "Part 1.024"
        },
        {
            "children" : [
                48
            ],
            "name" : "occurrence of Part 1.024",
            "translation" : [
                3.2144362926483154,
                9.805010795593262,
                1.3007866144180298
            ]
        },
        {
            "mesh" : 4,
            "name" : "Part 1.025"
        },
        {
            "children" : [
                50
            ],
            "name" : "occurrence of Part 1.025",
            "translation" : [
                0.21143627166748047,
                1.6050111055374146,
                4.80078649520874
            ]
        },
        {
            "mesh" : 2,
            "name" : "Part 1.026"
        },
        {
            "children" : [
                52
            ],
            "name" : "occurrence of Part 1.026",
            "translation" : [
                0.11143627017736435,
                1.7050111293792725,
                4.900786399841309
            ]
        },
        {
            "children" : [
                1,
                3,
                5,
                7,
                9,
                11,
                13,
                15,
                17,
                19,
                21,
                23,
                25,
                27,
                29,
                31,
                33,
                35,
                37,
                39,
                41,
                43,
                45,
                47,
                49,
                51,
                53
            ],
            "name" : "Ensamble PIPE",
            "rotation" : [
                -0.707099974155426,
                0,
                0,
                0.7071135640144348
            ],
            "translation" : [
                -4.817685127258301,
                -1.260202407836914,
                3.5084917545318604
            ]
        }
    ],
    "materials" : [
        {
            "doubleSided" : true,
            "name" : "0.823529_0.623529_0.035294_0.000000_0.000000",
            "pbrMetallicRoughness" : {
                "baseColorFactor" : [
                    0.8235294222831726,
                    0.6235294342041016,
                    0.03529411926865578,
                    1
                ],
                "metallicFactor" : 0
            }
        },
        {
            "doubleSided" : true,
            "name" : "0.972549_0.529412_0.003922_0.000000_0.000000",
            "pbrMetallicRoughness" : {
                "baseColorFactor" : [
                    0.9725490212440491,
                    0.529411792755127,
                    0.003921568859368563,
                    1
                ],
                "metallicFactor" : 0
            }
        },
        {
            "doubleSided" : true,
            "name" : "0.000000_0.000000_0.000000_0.000000_0.000000",
            "pbrMetallicRoughness" : {
                "baseColorFactor" : [
                    0,
                    0,
                    0,
                    1
                ],
                "metallicFactor" : 0
            }
        },
        {
            "doubleSided" : true,
            "name" : "0.196078_0.439216_0.078431_0.000000_0.000000",
            "pbrMetallicRoughness" : {
                "baseColorFactor" : [
                    0.19607843458652496,
                    0.43921568989753723,
                    0.0784313753247261,
                    1
                ],
                "metallicFactor" : 0
            }
        }
    ],
    "meshes" : [
        {
            "name" : "mesh0_mesh",
            "primitives" : [
                {
                    "attributes" : {
                        "POSITION" : 0,
                        "NORMAL" : 1
                    },
                    "indices" : 2,
                    "material" : 0
                }
            ]
        },
        {
            "name" : "mesh6_mesh",
            "primitives" : [
                {
                    "attributes" : {
                        "POSITION" : 3,
                        "NORMAL" : 4
                    },
                    "indices" : 5,
                    "material" : 0
                }
            ]
        },
        {
            "name" : "mesh12_mesh",
            "primitives" : [
                {
                    "attributes" : {
                        "POSITION" : 6,
                        "NORMAL" : 7
                    },
                    "indices" : 8,
                    "material" : 1
                }
            ]
        },
        {
            "name" : "mesh25_mesh",
            "primitives" : [
                {
                    "attributes" : {
                        "POSITION" : 9,
                        "NORMAL" : 10
                    },
                    "indices" : 11,
                    "material" : 0
                }
            ]
        },
        {
            "name" : "mesh31_mesh",
            "primitives" : [
                {
                    "attributes" : {
                        "POSITION" : 12,
                        "NORMAL" : 13
                    },
                    "indices" : 11,
                    "material" : 0
                }
            ]
        },
        {
            "name" : "mesh37_mesh",
            "primitives" : [
                {
                    "attributes" : {
                        "POSITION" : 14,
                        "NORMAL" : 15
                    },
                    "indices" : 16,
                    "material" : 2
                },
                {
                    "attributes" : {
                        "POSITION" : 17,
                        "NORMAL" : 18
                    },
                    "indices" : 19,
                    "material" : 3
                }
            ]
        }
    ],
    "accessors" : [
        {
            "bufferView" : 0,
            "componentType" : 5126,
            "count" : 40,
            "max" : [
                0.10000000149011612,
                0,
                0.10000000149011612
            ],
            "min" : [
                -2.0816681711721685e-17,
                -12.300000190734863,
                0
            ],
            "type" : "VEC3"
        },
        {
            "bufferView" : 1,
            "componentType" : 5126,
            "count" : 40,
            "type" : "VEC3"
        },
        {
            "bufferView" : 2,
            "componentType" : 5123,
            "count" : 60,
            "type" : "SCALAR"
        },
        {
            "bufferView" : 3,
            "componentType" : 5126,
            "count" : 24,
            "max" : [
                0.10000000149011612,
                0,
                0.10000000149011612
            ],
            "min" : [
                -2.0816681711721685e-17,
                -4,
                0
            ],
            "type" : "VEC3"
        },
        {
            "bufferView" : 4,
            "componentType" : 5126,
            "count" : 24,
            "type" : "VEC3"
        },
        {
            "bufferView" : 5,
            "componentType" : 5123,
            "count" : 36,
            "type" : "SCALAR"
        },
        {
            "bufferView" : 6,
            "componentType" : 5126,
            "count" : 86,
            "max" : [
                9.699999809265137,
                0,
                1.9639174938201904
            ],
            "min" : [
                -2.6645352591003757e-15,
                -0.10000000149011612,
                -1.2212453270876722e-15
            ],
            "type" : "VEC3"
        },
        {
            "bufferView" : 7,
            "componentType" : 5126,
            "count" : 86,
            "type" : "VEC3"
        },
        {
            "bufferView" : 8,
            "componentType" : 5123,
            "count" : 144,
            "type" : "SCALAR"
        },
        {
            "bufferView" : 9,
            "componentType" : 5126,
            "count" : 26,
            "max" : [
                0.10000000149011612,
                0.10000000149011612,
                3.5
            ],
            "min" : [
                -1.3877787807814457e-17,
                0,
                0
            ],
            "type" : "VEC3"
        },
        {
            "bufferView" : 10,
            "componentType" : 5126,
            "count" : 26,
            "type" : "VEC3"
        },
        {
            "bufferView" : 11,
            "componentType" : 5123,
            "count" : 36,
            "type" : "SCALAR"
        },
        {
            "bufferView" : 12,
            "componentType" : 5126,
            "count" : 26,
            "max" : [
                9.5,
                0.10000000149011612,
                0.10000000149011612
            ],
            "min" : [
                0,
                -2.0816681711721685e-17,
                0
            ],
            "type" : "VEC3"
        },
        {
            "bufferView" : 13,
            "componentType" : 5126,
            "count" : 26,
            "type" : "VEC3"
        },
        {
            "bufferView" : 14,
            "componentType" : 5126,
            "count" : 3226,
            "max" : [
                10,
                12.600000381469727,
                0.4300000071525574
            ],
            "min" : [
                0,
                0,
                0
            ],
            "type" : "VEC3"
        },
        {
            "bufferView" : 15,
            "componentType" : 5126,
            "count" : 3226,
            "type" : "VEC3"
        },
        {
            "bufferView" : 16,
            "componentType" : 5123,
            "count" : 9456,
            "type" : "SCALAR"
        },
        {
            "bufferView" : 17,
            "componentType" : 5126,
            "count" : 40,
            "max" : [
                9.850000381469727,
                12.449999809265137,
                0.029999999329447746
            ],
            "min" : [
                0.15000000596046448,
                0.15000000596046448,
                0.029999999329447746
            ],
            "type" : "VEC3"
        },
        {
            "bufferView" : 18,
            "componentType" : 5126,
            "count" : 40,
            "type" : "VEC3"
        },
        {
            "bufferView" : 19,
            "componentType" : 5123,
            "count" : 84,
            "type" : "SCALAR"
        }
    ],
    "bufferViews" : [
        {
            "buffer" : 0,
            "byteLength" : 480,
            "byteOffset" : 0
        },
        {
            "buffer" : 0,
            "byteLength" : 480,
            "byteOffset" : 480
        },
        {
            "buffer" : 0,
            "byteLength" : 120,
            "byteOffset" : 960
        },
        {
            "buffer" : 0,
            "byteLength" : 288,
            "byteOffset" : 1080
        },
        {
            "buffer" : 0,
            "byteLength" : 288,
            "byteOffset" : 1368
        },
        {
            "buffer" : 0,
            "byteLength" : 72,
            "byteOffset" : 1656
        },
        {
            "buffer" : 0,
            "byteLength" : 1032,
            "byteOffset" : 1728
        },
        {
            "buffer" : 0,
            "byteLength" : 1032,
            "byteOffset" : 2760
        },
        {
            "buffer" : 0,
            "byteLength" : 288,
            "byteOffset" : 3792
        },
        {
            "buffer" : 0,
            "byteLength" : 312,
            "byteOffset" : 4080
        },
        {
            "buffer" : 0,
            "byteLength" : 312,
            "byteOffset" : 4392
        },
        {
            "buffer" : 0,
            "byteLength" : 72,
            "byteOffset" : 4704
        },
        {
            "buffer" : 0,
            "byteLength" : 312,
            "byteOffset" : 4776
        },
        {
            "buffer" : 0,
            "byteLength" : 312,
            "byteOffset" : 5088
        },
        {
            "buffer" : 0,
            "byteLength" : 38712,
            "byteOffset" : 5400
        },
        {
            "buffer" : 0,
            "byteLength" : 38712,
            "byteOffset" : 44112
        },
        {
            "buffer" : 0,
            "byteLength" : 18912,
            "byteOffset" : 82824
        },
        {
            "buffer" : 0,
            "byteLength" : 480,
            "byteOffset" : 101736
        },
        {
            "buffer" : 0,
            "byteLength" : 480,
            "byteOffset" : 102216
        },
        {
            "buffer" : 0,
            "byteLength" : 168,
            "byteOffset" : 102696
        }
    ],
    "buffers" : [
        {
            "byteLength" : 102864,
            "uri" : "data:application/octet-stream;base64,"
        }
    ]
}
