{
    "asset" : {
        "generator" : "Khronos glTF Blender I/O v1.5.17",
        "version" : "2.0"
    },
    "scene" : 0,
    "scenes" : [
        {
            "name" : "Scene",
            "nodes" : [
                0
            ]
        }
    ],
    "nodes" : [
        {
            "mesh" : 0,
            "name" : "Snake plant",
            "translation" : [
                0.01605776697397232,
                0.01713058352470398,
                0
            ]
        }
    ],
    "materials" : [
        {
            "doubleSided" : true,
            "name" : "Soil 1",
            "pbrMetallicRoughness" : {
                "baseColorTexture" : {
                    "index" : 0
                },
                "metallicFactor" : 0
            }
        },
        {
            "doubleSided" : true,
            "name" : "White flower pot",
            "pbrMetallicRoughness" : {
                "baseColorFactor" : [
                    0.35055285692214966,
                    0.35055285692214966,
                    0.35055285692214966,
                    1
                ],
                "metallicFactor" : 0,
                "roughnessFactor" : 0
            }
        },
        {
            "doubleSided" : true,
            "name" : "Snake plant",
            "pbrMetallicRoughness" : {
                "baseColorTexture" : {
                    "index" : 1
                },
                "metallicFactor" : 0
            }
        }
    ],
    "meshes" : [
        {
            "name" : "Cylinder.2418",
            "primitives" : [
                {
                    "attributes" : {
                        "POSITION" : 0,
                        "NORMAL" : 1,
                        "TEXCOORD_0" : 2
                    },
                    "indices" : 3,
                    "material" : 0
                },
                {
                    "attributes" : {
                        "POSITION" : 4,
                        "NORMAL" : 5,
                        "TEXCOORD_0" : 6
                    },
                    "indices" : 7,
                    "material" : 1
                },
                {
                    "attributes" : {
                        "POSITION" : 8,
                        "NORMAL" : 9,
                        "TEXCOORD_0" : 10
                    },
                    "indices" : 11,
                    "material" : 2
                }
            ]
        }
    ],
    "textures" : [
        {
            "sampler" : 0,
            "source" : 0
        },
        {
            "sampler" : 0,
            "source" : 1
        }
    ],
    "images" : [
        {
            "bufferView" : 4,
            "mimeType" : "image/jpeg",
            "name" : "Soil1 COL"
        },
        {
            "bufferView" : 13,
            "mimeType" : "image/jpeg",
            "name" : "Snake plant COL"
        }
    ],
    "accessors" : [
        {
            "bufferView" : 0,
            "componentType" : 5126,
            "count" : 64,
            "max" : [
                0.6431165337562561,
                0.9159967303276062,
                0.6431170105934143
            ],
            "min" : [
                -0.6431173086166382,
                0.9159967303276062,
                -0.6431169509887695
            ],
            "type" : "VEC3"
        },
        {
            "bufferView" : 1,
            "componentType" : 5126,
            "count" : 64,
            "type" : "VEC3"
        },
        {
            "bufferView" : 2,
            "componentType" : 5126,
            "count" : 64,
            "type" : "VEC2"
        },
        {
            "bufferView" : 3,
            "componentType" : 5123,
            "count" : 186,
            "type" : "SCALAR"
        },
        {
            "bufferView" : 5,
            "componentType" : 5126,
            "count" : 2112,
            "max" : [
                0.6949605941772461,
                0.9855034351348877,
                0.6949610710144043
            ],
            "min" : [
                -0.694961428642273,
                -3.493914846330881e-08,
                -0.6949610114097595
            ],
            "type" : "VEC3"
        },
        {
            "bufferView" : 6,
            "componentType" : 5126,
            "count" : 2112,
            "type" : "VEC3"
        },
        {
            "bufferView" : 7,
            "componentType" : 5126,
            "count" : 2112,
            "type" : "VEC2"
        },
        {
            "bufferView" : 8,
            "componentType" : 5123,
            "count" : 3258,
            "type" : "SCALAR"
        },
        {
            "bufferView" : 9,
            "componentType" : 5126,
            "count" : 3372,
            "max" : [
                0.5609700083732605,
                5.988866806030273,
                0.9051997661590576
            ],
            "min" : [
                -0.6235010027885437,
                0.9159948229789734,
                -0.6381431221961975
            ],
            "type" : "VEC3"
        },
        {
            "bufferView" : 10,
            "componentType" : 5126,
            "count" : 3372,
            "type" : "VEC3"
        },
        {
            "bufferView" : 11,
            "componentType" : 5126,
            "count" : 3372,
            "type" : "VEC2"
        },
        {
            "bufferView" : 12,
            "componentType" : 5123,
            "count" : 5064,
            "type" : "SCALAR"
        }
    ],
    "bufferViews" : [
        {
            "buffer" : 0,
            "byteLength" : 768,
            "byteOffset" : 0
        },
        {
            "buffer" : 0,
            "byteLength" : 768,
            "byteOffset" : 768
        },
        {
            "buffer" : 0,
            "byteLength" : 512,
            "byteOffset" : 1536
        },
        {
            "buffer" : 0,
            "byteLength" : 372,
            "byteOffset" : 2048
        },
        {
            "buffer" : 0,
            "byteLength" : 12156,
            "byteOffset" : 2420
        },
        {
            "buffer" : 0,
            "byteLength" : 25344,
            "byteOffset" : 14576
        },
        {
            "buffer" : 0,
            "byteLength" : 25344,
            "byteOffset" : 39920
        },
        {
            "buffer" : 0,
            "byteLength" : 16896,
            "byteOffset" : 65264
        },
        {
            "buffer" : 0,
            "byteLength" : 6516,
            "byteOffset" : 82160
        },
        {
            "buffer" : 0,
            "byteLength" : 40464,
            "byteOffset" : 88676
        },
        {
            "buffer" : 0,
            "byteLength" : 40464,
            "byteOffset" : 129140
        },
        {
            "buffer" : 0,
            "byteLength" : 26976,
            "byteOffset" : 169604
        },
        {
            "buffer" : 0,
            "byteLength" : 10128,
            "byteOffset" : 196580
        },
        {
            "buffer" : 0,
            "byteLength" : 12249,
            "byteOffset" : 206708
        }
    ],
    "samplers" : [
        {
            "magFilter" : 9729,
            "minFilter" : 9987
        }
    ],
    "buffers" : [
        {
            "byteLength" : 218960,
            "uri" : "data:application/octet-stream;base64,"
        }
    ]
}
