{"accessors" : [{"bufferView" : 0, "byteOffset" : 0, "componentType" : 5123, "count" : 174, "type" : "SCALAR", "max" : [145], "min" : [0]}, {"bufferView" : 1, "byteOffset" : 0, "componentType" : 5126, "count" : 146, "type" : "VEC3", "max" : [68.55670166015625, 341.0917053222656, 37.879398345947266], "min" : [2.1422998905181885, 257.63848876953125, -7.502900123596191], "name" : "POSITION"}, {"bufferView" : 1, "byteOffset" : 12, "componentType" : 5126, "count" : 146, "type" : "VEC2", "max" : [0.9785000085830688, -0.0005000000237487257], "min" : [0.013399999588727951, -0.9908999800682068], "name" : "TEXCOORD_0"}, {"bufferView" : 1, "byteOffset" : 20, "componentType" : 5126, "count" : 146, "type" : "VEC3", "max" : [0.38450098037719727, 0.8461048007011414, 0.9208454489707947], "min" : [-0.9309516549110413, -0.2277068942785263, -0.9928581714630127], "name" : "NORMAL"}, {"bufferView" : 0, "byteOffset" : 348, "componentType" : 5123, "count" : 243, "type" : "SCALAR", "max" : [203], "min" : [0]}, {"bufferView" : 2, "byteOffset" : 0, "componentType" : 5126, "count" : 204, "type" : "VEC3", "max" : [-4.274899959564209, 308.4276123046875, 26.593599319458008], "min" : [-35.89289855957031, 232.522705078125, -38.99250030517578], "name" : "POSITION"}, {"bufferView" : 2, "byteOffset" : 12, "componentType" : 5126, "count" : 204, "type" : "VEC2", "max" : [0.9785000085830688, -0.0005000000237487257], "min" : [0.013399999588727951, -0.9908999800682068], "name" : "TEXCOORD_0"}, {"bufferView" : 2, "byteOffset" : 20, "componentType" : 5126, "count" : 204, "type" : "VEC3", "max" : [0.9646841287612915, 0.7058321237564087, 0.9486598372459412], "min" : [-0.9924982786178589, -0.2781105935573578, -0.9241328239440918], "name" : "NORMAL"}, {"bufferView" : 0, "byteOffset" : 836, "componentType" : 5123, "count" : 9240, "type" : "SCALAR", "max" : [7686], "min" : [0]}, {"bufferView" : 3, "byteOffset" : 0, "componentType" : 5126, "count" : 7687, "type" : "VEC3", "max" : [77.3031005859375, 181.7993927001953, 72.05989837646484], "min" : [-83.81199645996094, 0, -89.0438003540039], "name" : "POSITION"}, {"bufferView" : 3, "byteOffset" : 12, "componentType" : 5126, "count" : 7687, "type" : "VEC2", "max" : [0, -0], "min" : [0, -0], "name" : "TEXCOORD_0"}, {"bufferView" : 3, "byteOffset" : 20, "componentType" : 5126, "count" : 7687, "type" : "VEC3", "max" : [0.9984182715415955, 1.0000042915344238, 0.9984514713287354], "min" : [-0.9984126091003418, -0.9992475509643555, -0.9984012842178345], "name" : "NORMAL"}, {"bufferView" : 0, "byteOffset" : 19316, "componentType" : 5123, "count" : 642, "type" : "SCALAR", "max" : [641], "min" : [0]}, {"bufferView" : 4, "byteOffset" : 0, "componentType" : 5126, "count" : 642, "type" : "VEC3", "max" : [73.54740142822266, 177.77149963378906, 68.3156967163086], "min" : [-80.06400299072266, 161.5720977783203, -85.29570007324219], "name" : "POSITION"}, {"bufferView" : 4, "byteOffset" : 12, "componentType" : 5126, "count" : 642, "type" : "VEC2", "max" : [1.9773000478744507, 1.9098999500274658], "min" : [-1.792099952697754, -1.8142000436782837], "name" : "TEXCOORD_0"}, {"bufferView" : 4, "byteOffset" : 20, "componentType" : 5126, "count" : 642, "type" : "VEC3", "max" : [0.36801329255104065, 0.9999938011169434, 0.325602263212204], "min" : [-0.3873102366924286, 0.9137300848960876, -0.3097042143344879], "name" : "NORMAL"}, {"bufferView" : 0, "byteOffset" : 20600, "componentType" : 5123, "count" : 2844, "type" : "SCALAR", "max" : [2388], "min" : [0]}, {"bufferView" : 5, "byteOffset" : 0, "componentType" : 5126, "count" : 2389, "type" : "VEC3", "max" : [189.23959350585938, 340.29071044921875, 186.68479919433594], "min" : [-189.23959350585938, 103.79499816894531, -186.68479919433594], "name" : "POSITION"}, {"bufferView" : 5, "byteOffset" : 12, "componentType" : 5126, "count" : 2389, "type" : "VEC2", "max" : [0.9815999865531921, -0.0005000000237487257], "min" : [0.013399999588727951, -0.9908999800682068], "name" : "TEXCOORD_0"}, {"bufferView" : 5, "byteOffset" : 20, "componentType" : 5126, "count" : 2389, "type" : "VEC3", "max" : [0.9893262982368469, 0.9936006665229797, 0.9839110970497131], "min" : [-0.9975659251213074, -0.5861037969589233, -0.9736838936805725], "name" : "NORMAL"}], "asset" : {"generator" : "Aspose.3D 22.7", "version" : "2.0"}, "buffers" : [{"uri" : "data:application/octet-stream;base64,", "byteLength" : 446888}], "bufferViews" : [{"buffer" : 0, "byteOffset" : 0, "byteLength" : 26288, "target" : 34963}, {"buffer" : 0, "byteOffset" : 26292, "byteLength" : 5568, "byteStride" : 32, "target" : 34962}, {"buffer" : 0, "byteOffset" : 31864, "byteLength" : 7776, "byteStride" : 32, "target" : 34962}, {"buffer" : 0, "byteOffset" : 39644, "byteLength" : 295680, "byteStride" : 32, "target" : 34962}, {"buffer" : 0, "byteOffset" : 335328, "byteLength" : 20544, "byteStride" : 32, "target" : 34962}, {"buffer" : 0, "byteOffset" : 355876, "byteLength" : 91008, "byteStride" : 32, "target" : 34962}], "meshes" : [{"primitives" : [{"attributes" : {"POSITION" : 1, "TEXCOORD_0" : 2, "NORMAL" : 3}, "indices" : 0, "mode" : 4}], "name" : ""}, {"primitives" : [{"attributes" : {"POSITION" : 5, "TEXCOORD_0" : 6, "NORMAL" : 7}, "indices" : 4, "mode" : 4}], "name" : ""}, {"primitives" : [{"attributes" : {"POSITION" : 9, "TEXCOORD_0" : 10, "NORMAL" : 11}, "indices" : 8, "mode" : 4}], "name" : ""}, {"primitives" : [{"attributes" : {"POSITION" : 13, "TEXCOORD_0" : 14, "NORMAL" : 15}, "indices" : 12, "mode" : 4}], "name" : ""}, {"primitives" : [{"attributes" : {"POSITION" : 17, "TEXCOORD_0" : 18, "NORMAL" : 19}, "indices" : 16, "mode" : 4}], "name" : ""}], "nodes" : [{"mesh" : 0, "name" : "Group_006"}, {"mesh" : 1, "name" : "Group_005"}, {"mesh" : 2, "name" : "Group_004"}, {"mesh" : 3, "name" : "Group_002"}, {"mesh" : 4, "name" : "Group_001"}], "scene" : 0, "scenes" : [{"nodes" : [0, 1, 2, 3, 4]}]}